<svg width="24" height="32" viewBox="0 0 24 32" fill="none" xmlns="http://www.w3.org/2000/svg">
<path fill-rule="evenodd" clip-rule="evenodd" d="M17.7308 24.8948C20.6995 20.9161 23.25 16.976 23.25 12.217C23.2465 5.46159 18.3127 0.365159 11.7657 0.354614H11.7308C5.1838 0.365159 0.25 5.46159 0.25 12.217C0.25 16.9725 5.76916 24.8948 5.76916 24.8948L9.74477 30.6591C10.7134 32.065 12.7761 32.065 13.7483 30.6591L17.7274 24.8948H17.7308Z" fill="#A44926"/>
<path d="M11.8551 6.68707L13.3165 6.68707L13.3165 5.26815L11.8551 5.26815L11.8551 6.68707Z" fill="white"/>
<path d="M11.7733 15.0438L13.3165 15.0438L13.3165 13.6249L11.7733 13.6249L11.7733 15.0438Z" fill="white"/>
<path d="M13.1104 22.4192L14.5394 22.4192L14.5394 21.0002L13.1104 21.0002L13.1104 22.4192Z" fill="white"/>
<path d="M14.6113 20.4266L16.0403 20.4266L16.0403 19.0077L14.6113 19.0077L14.6113 20.4266Z" fill="white"/>
<path d="M16.0148 18.2556L17.4438 18.2556L17.4438 16.8367L16.0148 16.8367L16.0148 18.2556Z" fill="white"/>
<path d="M17.5158 12.1341L18.9448 12.1341L18.9448 10.7152L17.5158 10.7152L17.5158 12.1341Z" fill="white"/>
<path d="M17.5158 14.8998L18.9448 14.8998L18.9448 13.4809L17.5158 13.4809L17.5158 14.8998Z" fill="white"/>
<path d="M14.2639 7.43173L15.6929 7.43173L15.6929 6.01281L14.2639 6.01281L14.2639 7.43173Z" fill="white"/>
<path d="M15.6953 8.85086L17.1243 8.85086L17.1243 7.43194L15.6953 7.43194L15.6953 8.85086Z" fill="white"/>
<path d="M11.7688 12.1936L13.9071 12.1936L13.9071 10.1836L11.7688 10.1836L11.7688 12.1936Z" fill="white"/>
<path d="M13.9095 13.6127L15.3385 13.6127L15.3385 12.1938L13.9095 12.1938L13.9095 13.6127Z" fill="white"/>
<path fill-rule="evenodd" clip-rule="evenodd" d="M8.07656 20.7608C10.1767 23.5492 11.8204 26.4612 11.8827 26.5731L11.8851 26.5731L11.8851 24.1356C11.8779 24.1226 11.8707 24.1095 11.8635 24.0952L11.8635 6.67878C11.8707 6.67878 11.8779 6.67878 11.8851 6.67878L11.8851 5.26796L11.8743 5.26796C7.70517 5.27391 4.56157 8.49168 4.56157 12.7575C4.56156 15.7611 6.18488 18.2509 8.07656 20.762L8.07656 20.7608Z" fill="white"/>
</svg>
