<svg width="93" height="40" viewBox="0 0 93 40" fill="none" xmlns="http://www.w3.org/2000/svg">
<path d="M13.1248 37.2228H10.467V39.8806H13.1248V37.2228Z" fill="#8F8F8F"/>
<path d="M13.1248 21.5822H10.467V24.24H13.1248V21.5822Z" fill="#8F8F8F"/>
<path d="M10.8438 7.77353H8.18604V10.4313H10.8438V7.77353Z" fill="#8F8F8F"/>
<path d="M8.05679 11.5052H5.39899V14.163H8.05679V11.5052Z" fill="#8F8F8F"/>
<path d="M5.44308 15.5696H2.78528V18.2274H5.44308V15.5696Z" fill="#8F8F8F"/>
<path d="M2.6578 27.0262H0V29.684H2.6578V27.0262Z" fill="#8F8F8F"/>
<path d="M2.6578 21.8525H0V24.5103H2.6578V21.8525Z" fill="#8F8F8F"/>
<path d="M8.69119 35.8293H6.03339V38.4871H8.69119V35.8293Z" fill="#8F8F8F"/>
<path d="M6.03415 33.1714H3.37634V35.8292H6.03415V33.1714Z" fill="#8F8F8F"/>
<path d="M13.1238 26.9153H9.36115V30.6779H13.1238V26.9153Z" fill="#8F8F8F"/>
<path d="M9.36191 24.2617H6.7041V26.9195H9.36191V24.2617Z" fill="#8F8F8F"/>
<path d="M20.2011 10.8797C16.2965 5.66168 13.2438 0.208542 13.1285 0V4.56129C14.5306 7.36108 16.3098 9.90796 18.0403 12.3883C21.1551 16.852 24.0969 21.0672 24.0969 25.8592C24.0969 32.3462 19.3803 37.2358 13.124 37.2358V39.8759H13.1462C20.8978 39.867 26.7369 33.8415 26.7369 25.8592C26.7369 20.2374 23.7197 15.5741 20.2011 10.8752" fill="#8F8F8F"/>
<path fill-rule="evenodd" clip-rule="evenodd" d="M53.3802 17.7699H51.7078C50.6191 17.7699 50.068 17.0826 50.068 15.7268C50.068 14.7596 50.3522 13.6057 51.7078 13.6057H53.3802V17.7699ZM51.4505 19.615H55.4347V8.15611H53.3821V11.7606H51.4351C49.3806 11.7625 48 13.3562 48 15.7287C48 18.1013 49.3537 19.615 51.4505 19.615Z" fill="#8F8F8F"/>
<path fill-rule="evenodd" clip-rule="evenodd" d="M58.2208 10.4334C58.914 10.4334 59.4574 9.9022 59.4574 9.22244C59.4574 8.54267 58.9025 7.98096 58.2208 7.98096C57.5392 7.98096 56.9996 8.53886 56.9996 9.22244C56.9996 9.90601 57.5353 10.4334 58.2208 10.4334Z" fill="#8F8F8F"/>
<path d="M59.2634 11.7625H57.2108V19.6151H59.2634V11.7625Z" fill="#8F8F8F"/>
<path fill-rule="evenodd" clip-rule="evenodd" d="M64.8472 17.77C63.7585 17.7547 63.2055 17.0407 63.2055 15.6469C63.2055 14.2531 63.7566 13.6038 64.8453 13.6038H66.5158V17.7681H64.8472V17.77ZM64.5381 23.2195H64.7473C67.2838 23.2195 68.5684 21.8847 68.5684 19.2533V11.7625H64.5841C62.4874 11.7625 61.1337 13.2877 61.1337 15.6488C61.1337 18.0099 62.5142 19.6151 64.5688 19.6151H66.5119C66.462 20.8641 65.8591 21.424 64.5688 21.424C63.9524 21.424 63.4186 21.1631 63.1018 20.7061L61.5503 21.9742C62.2032 22.753 63.3188 23.2195 64.5361 23.2195H64.5381Z" fill="#8F8F8F"/>
<path fill-rule="evenodd" clip-rule="evenodd" d="M71.2259 10.4334C71.9191 10.4334 72.4625 9.9022 72.4625 9.22244C72.4625 8.54267 71.9076 7.98096 71.2259 7.98096C70.5443 7.98096 70.0067 8.53886 70.0067 9.22244C70.0067 9.90601 70.5424 10.4334 71.2259 10.4334Z" fill="#8F8F8F"/>
<path d="M72.2684 11.7625H70.2158V19.6151H72.2684V11.7625Z" fill="#8F8F8F"/>
<path fill-rule="evenodd" clip-rule="evenodd" d="M78.8622 19.6151V17.7719H77.303C76.9036 17.7719 76.5695 17.6919 76.5369 16.7075V13.6076H78.4762V11.7625H76.5369V9.7594H74.4824V16.7532C74.4824 18.5659 75.4827 19.5827 77.303 19.6151H78.8622Z" fill="#8F8F8F"/>
<path fill-rule="evenodd" clip-rule="evenodd" d="M83.1998 18.027C82.7677 18.027 82.0458 17.9071 82.0458 17.1074C82.0458 16.4333 82.3184 16.2505 84.2347 16.2505H85.0277C84.9528 17.3511 84.2616 18.027 83.2017 18.027H83.1998ZM87.0381 19.6151V14.6549C87.0381 12.5451 85.2409 11.6026 83.4571 11.6026C82.5008 11.6026 81.5235 11.8996 80.7094 12.4385L81.7597 13.9618C81.8595 13.8761 82.4048 13.4496 83.3591 13.4305C83.7316 13.4305 84.9106 13.5029 85.0085 14.4054H83.747C81.2681 14.4054 79.9567 15.3613 79.9567 17.1702C79.9567 18.802 81.1011 19.775 83.0193 19.775C83.8468 19.775 84.5074 19.4342 85.0296 19.1257V19.6132H87.0343L87.0381 19.6151Z" fill="#8F8F8F"/>
<path fill-rule="evenodd" clip-rule="evenodd" d="M91.4409 17.7699C91.0262 17.7699 90.7074 17.6938 90.6748 16.7379V8.15611H88.6202V16.7208C88.6202 18.5544 89.6206 19.5808 91.4409 19.6131H93.0001V17.7699H91.4409Z" fill="#8F8F8F"/>
<path fill-rule="evenodd" clip-rule="evenodd" d="M58.9736 28.0922C58.9736 30.7008 58.0942 33.7874 57.3511 33.7874C56.7079 33.7874 55.792 30.8417 55.792 28.0922V27.9703H53.7547V28.0922C53.7547 31.3958 52.785 33.7874 52.1322 33.7874C51.4448 33.7874 50.5577 31.0264 50.5577 28.0922V27.9703H48.4878V28.0922C48.4878 32.1479 50.2582 35.9847 52.1322 35.9847C53.0711 35.9847 53.9947 35.0098 54.7512 33.2333C55.5155 34.9869 56.4544 35.9847 57.3511 35.9847C59.4997 35.9847 60.9955 31.8261 60.9955 28.0922V27.9703H58.9736V28.0922Z" fill="#8F8F8F"/>
<path fill-rule="evenodd" clip-rule="evenodd" d="M65.4137 34.2367C64.9817 34.2367 64.2597 34.1167 64.2597 33.317C64.2597 32.6429 64.5324 32.4601 66.4487 32.4601H67.2417C67.1668 33.5607 66.4756 34.2367 65.4137 34.2367ZM65.6729 27.8103C64.7167 27.8103 63.7394 28.1074 62.9252 28.6462L63.9755 30.1676C64.0754 30.0819 64.6207 29.6554 65.575 29.6364C65.9475 29.6364 67.1265 29.7087 67.2244 30.6113H65.9629C63.484 30.6113 62.1725 31.5671 62.1725 33.376C62.1725 35.0078 63.3169 35.9808 65.2352 35.9808C66.0627 35.9808 66.7232 35.64 67.2455 35.3315V35.8209H69.2501V30.8607C69.2501 28.7509 67.4529 27.8065 65.671 27.8065L65.6729 27.8103Z" fill="#8F8F8F"/>
<path fill-rule="evenodd" clip-rule="evenodd" d="M72.8888 32.9152V29.8153H74.8281V27.9722H72.8888V25.969H70.8342V32.9628C70.8342 34.7755 71.8346 35.7923 73.6549 35.8247H75.214V33.9815H73.6549C73.2555 33.9815 72.9214 33.9015 72.8888 32.9171V32.9152Z" fill="#8F8F8F"/>
<path fill-rule="evenodd" clip-rule="evenodd" d="M78.6856 30.6799C78.9218 30.162 79.8012 29.6555 80.3599 29.6555C80.9187 29.6555 81.6599 29.9277 81.9517 30.6799H78.6856ZM84.133 31.67C83.9237 29.326 82.4606 27.8104 80.4079 27.8104H80.3427C78.1172 27.8104 76.3757 29.6231 76.3757 31.9366C76.3757 34.2501 78.1537 35.9999 80.4233 35.9999C81.8692 35.9828 83.1 35.4401 83.8008 34.5071L82.4145 33.3456C81.8999 33.9092 81.3123 34.172 80.5673 34.172H80.4367C79.4556 34.172 78.6625 33.4865 78.507 32.523H84.1291V31.67H84.133Z" fill="#8F8F8F"/>
<path fill-rule="evenodd" clip-rule="evenodd" d="M89.8108 27.8104C88.9563 27.8104 88.2881 28.0065 87.7351 28.4254V27.9703H85.6806V35.8229H87.7351V32.2279C87.762 31.0474 88.2267 29.6707 89.4556 29.6707C89.6898 29.6707 89.7954 29.7335 90.0412 29.8782L90.8726 28.0827C90.4924 27.8675 90.0124 27.8104 89.8108 27.8104Z" fill="#8F8F8F"/>
</svg>
