<svg width="41" height="41" viewBox="0 0 41 41" fill="none" xmlns="http://www.w3.org/2000/svg">
<path fill-rule="evenodd" clip-rule="evenodd" d="M40.6855 20.5183C40.6855 20.7994 40.5397 21.0702 40.3002 21.216L31.1359 27.0478C31.0006 27.1311 30.8444 27.1832 30.6881 27.1832C30.5528 27.1832 30.407 27.1519 30.282 27.0791C30.0112 26.9333 29.8446 26.6521 29.8446 26.3501V24.6838H19.0141C18.5559 24.6838 18.181 24.3089 18.181 23.8507C18.181 23.3925 18.5559 23.0176 19.0141 23.0176H30.6777C31.1359 23.0176 31.5109 23.3925 31.5109 23.8507V24.8296L38.2903 20.5183L31.5109 16.2069V17.1858C31.5109 17.644 31.1359 18.0189 30.6777 18.0189H19.0141C18.5559 18.0189 18.181 17.644 18.181 17.1858C18.181 16.7276 18.5559 16.3527 19.0141 16.3527H29.8446V14.6864C29.8446 14.3844 30.0112 14.1033 30.282 13.9575C30.5528 13.8117 30.8756 13.8221 31.1359 13.9887L40.3002 19.8205C40.5397 19.9767 40.6855 20.2371 40.6855 20.5287V20.5183ZM24.0232 9.67733H15.6921C15.2338 9.67733 14.8589 10.0522 14.8589 10.5105C14.8589 10.9687 15.2338 11.3436 15.6921 11.3436H23.1901V13.0098C23.1901 13.3118 23.3567 13.593 23.6275 13.7388C23.7525 13.8117 23.8878 13.8429 24.0336 13.8429C24.1898 13.8429 24.3461 13.8013 24.4814 13.7075L33.6457 7.87572C33.8852 7.71951 34.031 7.45916 34.031 7.16757C34.031 6.87598 33.8852 6.61563 33.6457 6.45942L24.471 0.648435C24.2107 0.481812 23.8878 0.471398 23.6171 0.617193C23.3463 0.762989 23.1797 1.04417 23.1797 1.34617V3.0124H15.6816C15.2234 3.0124 14.8485 3.38731 14.8485 3.84552C14.8485 4.30373 15.2234 4.67864 15.6816 4.67864H24.0128C24.471 4.67864 24.8459 4.30373 24.8459 3.84552V2.86661L31.6254 7.17798L24.8459 11.4894V10.5105C24.8459 10.0522 24.471 9.67733 24.0128 9.67733H24.0232ZM33.6353 33.1504L24.471 27.3186C24.2107 27.1519 23.8878 27.1415 23.6171 27.2873C23.3463 27.4331 23.1797 27.7143 23.1797 28.0163V29.6825H15.6816C15.2234 29.6825 14.8485 30.0574 14.8485 30.5157C14.8485 30.9739 15.2234 31.3488 15.6816 31.3488H24.0128C24.471 31.3488 24.8459 30.9739 24.8459 30.5157V29.5367L31.6254 33.8481L24.8459 38.1595V37.1806C24.8459 36.7224 24.471 36.3475 24.0128 36.3475H15.6816C15.2234 36.3475 14.8485 36.7224 14.8485 37.1806C14.8485 37.6388 15.2234 38.0137 15.6816 38.0137H23.1797V39.6799C23.1797 39.9819 23.3463 40.2631 23.6171 40.4089C23.742 40.4818 23.8774 40.5131 24.0232 40.5131C24.1794 40.5131 24.3356 40.4714 24.471 40.3777L33.6353 34.5459C33.8748 34.3896 34.0206 34.1293 34.0206 33.8377C34.0206 33.5565 33.8748 33.2858 33.6353 33.1296V33.1504ZM15.6921 18.0189C16.1503 18.0189 16.5252 17.644 16.5252 17.1858C16.5252 16.7276 16.1503 16.3527 15.6921 16.3527C15.2338 16.3527 14.8589 16.7276 14.8589 17.1858C14.8589 17.644 15.2338 18.0189 15.6921 18.0189ZM12.3492 16.3527H5.68425C5.22603 16.3527 4.85113 16.7276 4.85113 17.1858C4.85113 17.644 5.22603 18.0189 5.68425 18.0189H12.3492C12.8074 18.0189 13.1823 17.644 13.1823 17.1858C13.1823 16.7276 12.8074 16.3527 12.3492 16.3527ZM1.51866 21.3514H11.5161C11.9743 21.3514 12.3492 20.9765 12.3492 20.5183C12.3492 20.06 11.9743 19.6851 11.5161 19.6851H1.51866C1.06045 19.6851 0.685547 20.06 0.685547 20.5183C0.685547 20.9765 1.06045 21.3514 1.51866 21.3514ZM6.51736 23.8507C6.51736 23.3925 6.14246 23.0176 5.68425 23.0176C5.22603 23.0176 4.85113 23.3925 4.85113 23.8507C4.85113 24.3089 5.22603 24.6838 5.68425 24.6838C6.14246 24.6838 6.51736 24.3089 6.51736 23.8507ZM16.5252 23.8507C16.5252 23.3925 16.1503 23.0176 15.6921 23.0176H9.02712C8.56891 23.0176 8.19401 23.3925 8.19401 23.8507C8.19401 24.3089 8.56891 24.6838 9.02712 24.6838H15.6921C16.1503 24.6838 16.5252 24.3089 16.5252 23.8507ZM10.6829 8.0111H13.1823C13.6405 8.0111 14.0154 7.6362 14.0154 7.17798C14.0154 6.71977 13.6405 6.34487 13.1823 6.34487H10.6829C10.2247 6.34487 9.84983 6.71977 9.84983 7.17798C9.84983 7.6362 10.2247 8.0111 10.6829 8.0111ZM1.51866 11.3436H3.1849C3.64311 11.3436 4.01801 10.9687 4.01801 10.5105C4.01801 10.0522 3.64311 9.67733 3.1849 9.67733H1.51866C1.06045 9.67733 0.685547 10.0522 0.685547 10.5105C0.685547 10.9687 1.06045 11.3436 1.51866 11.3436ZM9.84983 11.3436H11.5161C11.9743 11.3436 12.3492 10.9687 12.3492 10.5105C12.3492 10.0522 11.9743 9.67733 11.5161 9.67733H9.84983C9.39161 9.67733 9.01671 10.0522 9.01671 10.5105C9.01671 10.9687 9.39161 11.3436 9.84983 11.3436ZM6.51736 11.3436C6.97557 11.3436 7.35048 10.9687 7.35048 10.5105C7.35048 10.0522 6.97557 9.67733 6.51736 9.67733C6.05915 9.67733 5.68425 10.0522 5.68425 10.5105C5.68425 10.9687 6.05915 11.3436 6.51736 11.3436ZM2.35178 13.8533C2.35178 14.3115 2.72668 14.6864 3.1849 14.6864H9.01671C9.47492 14.6864 9.84983 14.3115 9.84983 13.8533C9.84983 13.3951 9.47492 13.0202 9.01671 13.0202H3.1849C2.72668 13.0202 2.35178 13.3951 2.35178 13.8533ZM2.35178 27.1832C2.35178 27.6414 2.72668 28.0163 3.1849 28.0163H9.01671C9.47492 28.0163 9.84983 27.6414 9.84983 27.1832C9.84983 26.725 9.47492 26.3501 9.01671 26.3501H3.1849C2.72668 26.3501 2.35178 26.725 2.35178 27.1832ZM11.5161 31.3488C11.9743 31.3488 12.3492 30.9739 12.3492 30.5157C12.3492 30.0574 11.9743 29.6825 11.5161 29.6825H9.84983C9.39161 29.6825 9.01671 30.0574 9.01671 30.5157C9.01671 30.9739 9.39161 31.3488 9.84983 31.3488H11.5161ZM6.51736 29.6825C6.05915 29.6825 5.68425 30.0574 5.68425 30.5157C5.68425 30.9739 6.05915 31.3488 6.51736 31.3488C6.97557 31.3488 7.35048 30.9739 7.35048 30.5157C7.35048 30.0574 6.97557 29.6825 6.51736 29.6825ZM3.1849 29.6825H1.51866C1.06045 29.6825 0.685547 30.0574 0.685547 30.5157C0.685547 30.9739 1.06045 31.3488 1.51866 31.3488H3.1849C3.64311 31.3488 4.01801 30.9739 4.01801 30.5157C4.01801 30.0574 3.64311 29.6825 3.1849 29.6825ZM13.1823 33.015H10.6829C10.2247 33.015 9.84983 33.3899 9.84983 33.8481C9.84983 34.3063 10.2247 34.6812 10.6829 34.6812H13.1823C13.6405 34.6812 14.0154 34.3063 14.0154 33.8481C14.0154 33.3899 13.6405 33.015 13.1823 33.015Z" fill="#8F8F8F"/>
</svg>
