<svg width="23" height="41" viewBox="0 0 23 41" fill="none" xmlns="http://www.w3.org/2000/svg">
<path d="M10.4182 12.5216V12.5365V12.5216ZM10.4182 12.5216V12.5067M10.4182 12.5216V12.5067M10.4182 12.5067V12.4917M10.4182 12.5067V12.4917M10.4182 12.4917V12.4768M10.4182 12.4917V12.4768M10.4182 12.4768V12.4618M10.4182 12.4768V12.4618M10.4182 12.4618V12.4469M10.4182 12.4618V12.4469M10.4182 12.4469V12.432M10.4182 12.4469V12.432M10.4182 12.432V12.417M10.4182 12.432V12.417M10.4182 12.417V12.4021M10.4182 12.417V12.4021M10.4182 12.4021V12.3871M10.4182 12.4021V12.3871M10.4182 12.3871V12.3722M10.4182 12.3871V12.3722M10.4182 12.3722V12.3573M10.4182 12.3722V12.3573M10.4182 12.3573V12.3423M10.4182 12.3573V12.3423M10.4182 12.3423V12.3274M10.4182 12.3423V12.3274M10.4182 12.3274V12.3124M10.4182 12.3274V12.3124M10.4182 12.3124V12.2975M10.4182 12.3124V12.2975M10.4182 12.2975V12.2826M10.4182 12.2975V12.2826M10.4182 12.2826V12.2676M10.4182 12.2826V12.2676M10.4182 12.2676V12.2527M10.4182 12.2676V12.2527M10.4182 12.2527V12.2377M10.4182 12.2527V12.2377M10.4182 12.2377V12.2228M10.4182 12.2377V12.2228M10.4182 12.2228V12.2079M10.4182 12.2228V12.2079M10.4182 12.2079V12.1929M10.4182 12.2079V12.1929M10.4182 12.1929V12.178M10.4182 12.1929V12.178M10.4182 12.178V12.163M10.4182 12.178V12.163M10.4182 12.163V12.1481M10.4182 12.163V12.1481M10.4182 12.1481V12.1331M10.4182 12.1481V12.1331M10.4182 12.1331V12.1182M10.4182 12.1331V12.1182M10.4182 12.1182V12.1033M10.4182 12.1182V12.1033M10.4182 12.1033V12.0883M10.4182 12.1033V12.0883M10.4182 12.0883V12.0734M10.4182 12.0883V12.0734M10.4182 12.0734V12.0584M10.4182 12.0734V12.0584M10.4182 12.0584V12.0435M10.4182 12.0584V12.0435M10.4182 12.0435V12.0285M10.4182 12.0435V12.0285M10.4182 12.0285V12.0136M10.4182 12.0285V12.0136M10.4182 12.0136V11.9987M10.4182 12.0136V11.9987M10.4182 11.9987V11.9837M10.4182 11.9987V11.9837M10.4182 11.9837V11.9688M10.4182 11.9837V11.9688M10.4182 11.9688V11.9538M10.4182 11.9688V11.9538M10.4182 11.9538V11.9389M10.4182 11.9538V11.9389M10.4182 11.9389V11.9239M10.4182 11.9389V11.9239M10.4182 11.9239V11.909M10.4182 11.9239V11.909M10.4182 11.909V11.894M10.4182 11.909V11.894M10.4182 11.894V11.8791M10.4182 11.894V11.8791M10.4182 11.8791V11.8641M10.4182 11.8791V11.8641M10.4182 11.8641V11.8492M10.4182 11.8641V11.8492M10.4182 11.8492V11.8342M10.4182 11.8492V11.8342M10.4182 11.8342V11.8193M10.4182 11.8342V11.8193M10.4182 11.8193V11.8044M10.4182 11.8193V11.8044M10.4182 11.8044V11.7894M10.4182 11.8044V11.7894M10.4182 11.7894V11.7745M10.4182 11.7894V11.7745M10.4182 11.7745V11.7595M10.4182 11.7745V11.7595M10.4182 11.7595V11.7446M10.4182 11.7595V11.7446M10.4182 11.7446V11.7296M10.4182 11.7446V11.7296M10.4182 11.7296V11.7147M10.4182 11.7296V11.7147M10.4182 11.7147V11.6997M10.4182 11.7147V11.6997M10.4182 11.6997V11.6848M10.4182 11.6997V11.6848M10.4182 11.6848V11.6698M10.4182 11.6848V11.6698M10.4182 11.6698V11.6549M10.4182 11.6698V11.6549M10.4182 11.6549V11.6399M10.4182 11.6549V11.6399M10.4182 11.6399V11.625M10.4182 11.6399V11.625M10.4182 11.625V11.61M10.4182 11.625V11.61M10.4182 11.61V11.5951M10.4182 11.61V11.5951M10.4182 11.5951V11.5801M10.4182 11.5951V11.5801M10.4182 11.5801V11.5652M10.4182 11.5801V11.5652M10.4182 11.5652V11.5502M10.4182 11.5652V11.5502M10.4182 11.5502V11.5353M10.4182 11.5502V11.5353M10.4182 11.5353V11.5203M10.4182 11.5353V11.5203M10.4182 11.5203V11.5054M10.4182 11.5203V11.5054M10.4182 11.5054V11.4904M10.4182 11.5054V11.4904M10.4182 11.4904V11.4755M10.4182 11.4904V11.4755M10.4182 11.4755V11.4605M10.4182 11.4755V11.4605M10.4182 11.4605V11.4456M10.4182 11.4605V11.4456M10.4182 11.4456V11.4306M10.4182 11.4456V11.4306M10.4182 11.4306V11.4157M10.4182 11.4306V11.4157M10.4182 11.4157V11.4007M10.4182 11.4157V11.4007M10.4182 11.4007V11.3857M10.4182 11.4007V11.3857M10.4182 11.3857V11.3708M10.4182 11.3857V11.3708M10.4182 11.3708V11.3558M10.4182 11.3708V11.3558M10.4182 11.3558V11.3409M10.4182 11.3558V11.3409M10.4182 11.3409V11.3259M10.4182 11.3409V11.3259M10.4182 11.3259V11.311M10.4182 11.3259V11.311M10.4182 11.311V11.296M10.4182 11.311V11.296M10.4182 11.296V11.2811M10.4182 11.296V11.2811M10.4182 11.2811V11.2661M10.4182 11.2811V11.2661M10.4182 11.2661V11.2512M10.4182 11.2661V11.2512M10.4182 11.2512V11.2362M10.4182 11.2512V11.2362M10.4182 11.2362V11.2213M10.4182 11.2362V11.2213M10.4182 11.2213V11.2063M10.4182 11.2213V11.2063M10.4182 11.2063V11.1914M10.4182 11.2063V11.1914M10.4182 11.1914V11.1764M10.4182 11.1914V11.1764M10.4182 11.1764V11.1614M10.4182 11.1764V11.1614M10.4182 11.1614V11.1465M10.4182 11.1614V11.1465M10.4182 11.1465V11.1315M10.4182 11.1465V11.1315M10.4182 11.1315V11.1166M10.4182 11.1315V11.1166M10.4182 11.1166V11.1016M10.4182 11.1166V11.1016M10.4182 11.1016V11.0867M10.4182 11.1016V11.0867M10.4182 11.0867V11.0717M10.4182 11.0867V11.0717M10.4182 11.0717V11.0568M10.4182 11.0717V11.0568M10.4182 11.0568V11.0418M10.4182 11.0568V11.0418M10.4182 11.0418V11.0268M10.4182 11.0418V11.0268M10.4182 11.0268V11.0119M10.4182 11.0268V11.0119M10.4182 11.0119V10.9969M10.4182 11.0119V10.9969M10.4182 10.9969V10.982M10.4182 10.9969V10.982M10.4182 10.982V10.967M10.4182 10.982V10.967M10.4182 10.967V10.9521M10.4182 10.967V10.9521M10.4182 10.9521V10.9371M10.4182 10.9521V10.9371M10.4182 10.9371V10.9221M10.4182 10.9371V10.9221M10.4182 10.9221V10.9072M10.4182 10.9221V10.9072M10.4182 10.9072V10.8922M10.4182 10.9072V10.8922M10.4182 10.8922V10.8773M10.4182 10.8922V10.8773M10.4182 10.8773V10.8623M10.4182 10.8773V10.8623M10.4182 10.8623V10.8474M10.4182 10.8623V10.8474M10.4182 10.8474V10.8324M10.4182 10.8474V10.8324M10.4182 10.8324V10.8174M10.4182 10.8324V10.8174M10.4182 10.8174V10.8025M10.4182 10.8174V10.8025M10.4182 10.8025V10.7875M10.4182 10.8025V10.7875M10.4182 10.7875V10.7726M10.4182 10.7875V10.7726M10.4182 10.7726V10.7576M10.4182 10.7726V10.7576M10.4182 10.7576V10.7426M10.4182 10.7576V10.7426M10.4182 10.7426V10.7277M10.4182 10.7426V10.7277M10.4182 10.7277V10.7127M10.4182 10.7277V10.7127M10.4182 10.7127V10.6978M10.4182 10.7127V10.6978M10.4182 10.6978V10.6828M10.4182 10.6978V10.6828M10.4182 10.6828V10.6678M10.4182 10.6828V10.6678M10.4182 10.6678V10.6529M10.4182 10.6678V10.6529M10.4182 10.6529V10.6379M10.4182 10.6529V10.6379M10.4182 10.6379V10.623M10.4182 10.6379V10.623M10.4182 10.623V10.608M10.4182 10.623V10.608M10.4182 10.608V10.593M10.4182 10.608V10.593M10.4182 10.593V10.5781M10.4182 10.593V10.5781M10.4182 10.5781V10.5631M10.4182 10.5781V10.5631M10.4182 10.5631V10.5482M10.4182 10.5631V10.5482M10.4182 10.5482V10.5332M10.4182 10.5482V10.5332M10.4182 10.5332V10.5182M10.4182 10.5332V10.5182M10.4182 10.5182V10.5033M10.4182 10.5182V10.5033M10.4182 10.5033V10.4883M10.4182 10.5033V10.4883M10.4182 10.4883V10.4734M10.4182 10.4883V10.4734M10.4182 10.4734V10.4584M10.4182 10.4734V10.4584M10.4182 10.4584V10.4434M10.4182 10.4584V10.4434M10.4182 10.4434V10.4285M10.4182 10.4434V10.4285M10.4182 10.4285V10.4135M10.4182 10.4285V10.4135M10.4182 10.4135V10.3985M10.4182 10.4135V10.3985M10.4182 10.3985V10.3836M10.4182 10.3985V10.3836M10.4182 10.3836V10.3686M10.4182 10.3836V10.3686M10.4182 10.3686V10.3537M10.4182 10.3686V10.3537M10.4182 10.3537V10.3387M10.4182 10.3537V10.3387M10.4182 10.3387V10.3237M10.4182 10.3387V10.3237M10.4182 10.3237V10.3088M10.4182 10.3237V10.3088M10.4182 10.3088V10.2938M10.4182 10.3088V10.2938M10.4182 10.2938V10.2788M10.4182 10.2938V10.2788M10.4182 10.2788V10.2639M10.4182 10.2788V10.2639M10.4182 10.2639V10.2489M10.4182 10.2639V10.2489M10.4182 10.2489V10.234M10.4182 10.2489V10.234M10.4182 10.234V10.219M10.4182 10.234V10.219M10.4182 10.219V10.204M10.4182 10.219V10.204M10.4182 10.204V10.1891M10.4182 10.204V10.1891M10.4182 10.1891V10.1741M10.4182 10.1891V10.1741M10.4182 10.1741V10.1591M10.4182 10.1741V10.1591M10.4182 10.1591V10.1442M10.4182 10.1591V10.1442M10.4182 10.1442V10.1292M10.4182 10.1442V10.1292M10.4182 10.1292V10.1143M10.4182 10.1292V10.1143M10.4182 10.1143V10.0993M10.4182 10.1143V10.0993M10.4182 10.0993V10.0843M10.4182 10.0993V10.0843M10.4182 10.0843V10.0694M10.4182 10.0843V10.0694M10.4182 10.0694V10.0544M10.4182 10.0694V10.0544M10.4182 10.0544V10.0394M10.4182 10.0544V10.0394M10.4182 10.0394V10.0245M10.4182 10.0394V10.0245M10.4182 10.0245V10.0095M10.4182 10.0245V10.0095M10.4182 10.0095V9.99454M10.4182 10.0095V9.99454M10.4182 9.99454V9.97958M10.4182 9.99454V9.97958M10.4182 9.97958V9.96461M10.4182 9.97958V9.96461M10.4182 9.96461V9.94965M10.4182 9.96461V9.94965M10.4182 9.94965V9.93468M10.4182 9.94965V9.93468M10.4182 9.93468V9.91972M10.4182 9.93468V9.91972M10.4182 9.91972V9.90475M10.4182 9.91972V9.90475M10.4182 9.90475V9.88979M10.4182 9.90475V9.88979M10.4182 9.88979V9.87482M10.4182 9.88979V9.87482M10.4182 9.87482V9.85986M10.4182 9.87482V9.85986M10.4182 9.85986V9.84489M10.4182 9.85986V9.84489M10.4182 9.84489V9.82993M10.4182 9.84489V9.82993M10.4182 9.82993V9.81496M10.4182 9.82993V9.81496M10.4182 9.81496V9.8M10.4182 9.81496V9.8M10.4182 9.8V9.78503M10.4182 9.8V9.78503M10.4182 9.78503V9.77007M10.4182 9.78503V9.77007M10.4182 9.77007V9.7551M10.4182 9.77007V9.7551M10.4182 9.7551V9.74014M10.4182 9.7551V9.74014M10.4182 9.74014V9.72517M10.4182 9.74014V9.72517M10.4182 9.72517V9.7102M10.4182 9.72517V9.7102M10.4182 9.7102V9.69524M10.4182 9.7102V9.69524M10.4182 9.69524V9.68027M10.4182 9.69524V9.68027M10.4182 9.68027V9.66531M10.4182 9.68027V9.66531M10.4182 9.66531V9.65034M10.4182 9.66531V9.65034M10.4182 9.65034V9.63537M10.4182 9.65034V9.63537M10.4182 9.63537V9.62041M10.4182 9.63537V9.62041M10.4182 9.62041V9.60544M10.4182 9.62041V9.60544M10.4182 9.60544V9.59048M10.4182 9.60544V9.59048M10.4182 9.59048V9.57551M10.4182 9.59048V9.57551M10.4182 9.57551V9.56054M10.4182 9.57551V9.56054M10.4182 9.56054V9.54558M10.4182 9.56054V9.54558M10.4182 9.54558V9.53061M10.4182 9.54558V9.53061M10.4182 9.53061V9.51564M10.4182 9.53061V9.51564M10.4182 9.51564V9.50068M10.4182 9.51564V9.50068M10.4182 9.50068V9.48571M10.4182 9.50068V9.48571M10.4182 9.48571V9.47074M10.4182 9.48571V9.47074M10.4182 9.47074V9.45578M10.4182 9.47074V9.45578M10.4182 9.45578V9.44081M10.4182 9.45578V9.44081M10.4182 9.44081V9.42584M10.4182 9.44081V9.42584M10.4182 9.42584V9.41088M10.4182 9.42584V9.41088M10.4182 9.41088V9.39591M10.4182 9.41088V9.39591M10.4182 9.39591V9.38094M10.4182 9.39591V9.38094M10.4182 9.38094V9.36598M10.4182 9.38094V9.36598M10.4182 9.36598V9.35101M10.4182 9.36598V9.35101M10.4182 9.35101V9.33604M10.4182 9.35101V9.33604M10.4182 9.33604V9.32107M10.4182 9.33604V9.32107M10.4182 9.32107V9.30611M10.4182 9.32107V9.30611M10.4182 9.30611V9.29114M10.4182 9.30611V9.29114M10.4182 9.29114V9.27617M10.4182 9.29114V9.27617M10.4182 9.27617V9.2612M10.4182 9.27617V9.2612M10.4182 9.2612V9.24624M10.4182 9.2612V9.24624M10.4182 9.24624V9.23127M10.4182 9.24624V9.23127M10.4182 9.23127V9.2163M10.4182 9.23127V9.2163M10.4182 9.2163V9.20134M10.4182 9.2163V9.20134M10.4182 9.20134V9.18637M10.4182 9.20134V9.18637M10.4182 9.18637V9.1714M10.4182 9.18637V9.1714M10.4182 9.1714V9.15643M10.4182 9.1714V9.15643M10.4182 9.15643V9.14147M10.4182 9.15643V9.14147M10.4182 9.14147V9.1265M10.4182 9.14147V9.1265M10.4182 9.1265V9.11153M10.4182 9.1265V9.11153M10.4182 9.11153V9.09656M10.4182 9.11153V9.09656M10.4182 9.09656V9.0816M10.4182 9.09656V9.0816M10.4182 9.0816V9.06663M10.4182 9.0816V9.06663M10.4182 9.06663V9.05166M10.4182 9.06663V9.05166M10.4182 9.05166V9.03669M10.4182 9.05166V9.03669M10.4182 9.03669V9.02172M10.4182 9.03669V9.02172M10.4182 9.02172V9.00676M10.4182 9.02172V9.00676M10.4182 9.00676V8.99179M10.4182 9.00676V8.99179M10.4182 8.99179V8.97682M10.4182 8.99179V8.97682M10.4182 8.97682V8.96185M10.4182 8.97682V8.96185M10.4182 8.96185V8.94689M10.4182 8.96185V8.94689M10.4182 8.94689V8.93192M10.4182 8.94689V8.93192M10.4182 8.93192V8.91695M10.4182 8.93192V8.91695M10.4182 8.91695V8.90198M10.4182 8.91695V8.90198M10.4182 8.90198V8.88701M10.4182 8.90198V8.88701M10.4182 8.88701V8.87205M10.4182 8.88701V8.87205M10.4182 8.87205V8.85708M10.4182 8.87205V8.85708M10.4182 8.85708V8.84211M10.4182 8.85708V8.84211M10.4182 8.84211V8.82714M10.4182 8.84211V8.82714M10.4182 8.82714V8.81217M10.4182 8.82714V8.81217M10.4182 8.81217V8.79721M10.4182 8.81217V8.79721M10.4182 8.79721V8.78224M10.4182 8.79721V8.78224M10.4182 8.78224V8.76727M10.4182 8.78224V8.76727M10.4182 8.76727V8.7523M10.4182 8.76727V8.7523M10.4182 8.7523V8.73734M10.4182 8.7523V8.73734M10.4182 8.73734V8.72237M10.4182 8.73734V8.72237M10.4182 8.72237V8.7074M10.4182 8.72237V8.7074M10.4182 8.7074V8.69243M10.4182 8.7074V8.69243M10.4182 8.69243V8.67746M10.4182 8.69243V8.67746M10.4182 8.67746V8.6625M10.4182 8.67746V8.6625M10.4182 8.6625V8.64753M10.4182 8.6625V8.64753M10.4182 8.64753V8.63256M10.4182 8.64753V8.63256M10.4182 8.63256V8.61759M10.4182 8.63256V8.61759M10.4182 8.61759V8.60262M10.4182 8.61759V8.60262M10.4182 8.60262V8.58766M10.4182 8.60262V8.58766M10.4182 8.58766V8.57269M10.4182 8.58766V8.57269M10.4182 8.57269V8.55772M10.4182 8.57269V8.55772M10.4182 8.55772V8.54275M10.4182 8.55772V8.54275M10.4182 8.54275V8.52778M10.4182 8.54275V8.52778M10.4182 8.52778V8.51282M10.4182 8.52778V8.51282M10.4182 8.51282V8.49785M10.4182 8.51282V8.49785M10.4182 8.49785V8.48288M10.4182 8.49785V8.48288M10.4182 8.48288V8.46791M10.4182 8.48288V8.46791M10.4182 8.46791V8.45295M10.4182 8.46791V8.45295M10.4182 8.45295V8.43798M10.4182 8.45295V8.43798M10.4182 8.43798V8.42301M10.4182 8.43798V8.42301M10.4182 8.42301V8.40804M10.4182 8.42301V8.40804M10.4182 8.40804V8.39307M10.4182 8.40804V8.39307M10.4182 8.39307V8.37811M10.4182 8.39307V8.37811M10.4182 8.37811V8.36314M10.4182 8.37811V8.36314M10.4182 8.36314V8.34817M10.4182 8.36314V8.34817M10.4182 8.34817V8.3332M10.4182 8.34817V8.3332M10.4182 8.3332V8.31824M10.4182 8.3332V8.31824M10.4182 8.31824V8.30327M10.4182 8.31824V8.30327M10.4182 8.30327V8.2883M10.4182 8.30327V8.2883M10.4182 8.2883V8.27333M10.4182 8.2883V8.27333M10.4182 8.27333V8.25837M10.4182 8.27333V8.25837M10.4182 8.25837V8.2434M10.4182 8.25837V8.2434M10.4182 8.2434V8.22843M10.4182 8.2434V8.22843M10.4182 8.22843V8.21346M10.4182 8.22843V8.21346M10.4182 8.21346V8.1985M10.4182 8.21346V8.1985M10.4182 8.1985V8.18353M10.4182 8.1985V8.18353M10.4182 8.18353V8.16856M10.4182 8.18353V8.16856M10.4182 8.16856V8.15359M10.4182 8.16856V8.15359M10.4182 8.15359V8.13863M10.4182 8.15359V8.13863M10.4182 8.13863V8.12366M10.4182 8.13863V8.12366M10.4182 8.12366V8.10869M10.4182 8.12366V8.10869M10.4182 8.10869V8.09372M10.4182 8.10869V8.09372M10.4182 8.09372V8.07876M10.4182 8.09372V8.07876M10.4182 8.07876V8.06379M10.4182 8.07876V8.06379M10.4182 8.06379V8.04882M10.4182 8.06379V8.04882M10.4182 8.04882V8.03386M10.4182 8.04882V8.03386M10.4182 8.03386V8.01889M10.4182 8.03386V8.01889M10.4182 8.01889V8.00392M10.4182 8.01889V8.00392M10.4182 8.00392V7.98896V8.00392ZM12.3287 13.0805L12.3181 13.0592L12.2754 13.0805H12.3287ZM7.0243 1.64717C9.10725 0.624657 11.4982 1.85028 11.7568 4.09879L10.4182 4.87827C10.4182 4.16416 10.1218 3.51652 9.42997 3.14746C8.80693 2.80856 8.13318 2.82019 7.52794 3.20803C6.93853 3.57767 6.66633 4.1645 6.66633 4.82494V4.83457V4.84419V4.85382V4.86344V4.87307V4.88269V4.89232V4.90195V4.91157V4.9212V4.93083V4.94045V4.95008V4.95971V4.96934V4.97896V4.98859V4.99822V5.00785V5.01748V5.02711V5.03674V5.04637V5.056V5.06563V5.07526V5.08489V5.09452V5.10415V5.11378V5.12341V5.13305V5.14268V5.15231V5.16194V5.17157V5.18121V5.19084V5.20047V5.21011V5.21974V5.22937V5.23901V5.24864V5.25828V5.26791V5.27755V5.28718V5.29682V5.30645V5.31609V5.32572V5.33536V5.345V5.35463V5.36427V5.37391V5.38354V5.39318V5.40282V5.41245V5.42209V5.43173V5.44137V5.45101V5.46064V5.47028V5.47992V5.48956V5.4992V5.50884V5.51848V5.52812V5.53776V5.5474V5.55704V5.56668V5.57632V5.58596V5.5956V5.60524V5.61488V5.62452V5.63417V5.64381V5.65345V5.66309V5.67273V5.68238V5.69202V5.70166V5.7113V5.72095V5.73059V5.74023V5.74988V5.75952V5.76916V5.77881V5.78845V5.7981V5.80774V5.81739V5.82703V5.83667V5.84632V5.85596V5.86561V5.87526V5.8849V5.89455V5.90419V5.91384V5.92348V5.93313V5.94278V5.95242V5.96207V5.97172V5.98136V5.99101V6.00066V6.0103V6.01995V6.0296V6.03925V6.04889V6.05854V6.06819V6.07784V6.08749V6.09714V6.10678V6.11643V6.12608V6.13573V6.14538V6.15503V6.16468V6.17433V6.18398V6.19362V6.20327V6.21292V6.22257V6.23222V6.24187V6.25152V6.26117V6.27082V6.28048V6.29013V6.29978V6.30943V6.31908V6.32873V6.33838V6.34803V6.35768V6.36733V6.37698V6.38664V6.39629V6.40594V6.41559V6.42524V6.43489V6.44455V6.4542V6.46385V6.4735V6.48316V6.49281V6.50246V6.51211V6.52177V6.53142V6.54107V6.55072V6.56038V6.57003V6.57968V6.58934V6.59899V6.60864V6.6183V6.62795V6.6376V6.64726V6.65691V6.66656V6.67622V6.68587V6.69553V6.70518V6.71483V6.72449V6.73414V6.7438V6.75345V6.7631V6.77276V6.78241V6.79207V6.80172V6.81138V6.82103V6.83069V6.84034V6.84999V6.85965V6.8693V6.87896V6.88861V6.89827V6.90792V6.91758V6.92723V6.93689V6.94654V6.9562V6.96585V6.97551V6.98516V6.99482V7.00447V7.01413V7.02379V7.03344V7.0431V7.05275V7.06241V7.07206V7.08172V7.09137V7.10103V7.11068V7.12034V7.13V7.13965V7.14931V7.15896V7.16862V7.17827V7.18793V7.19759V7.20724V7.2169V7.22655V7.23621V7.24586V7.25552V7.26518V7.27483V7.28449V7.29414V7.3038V7.31345V7.32311V7.33277V7.34242V7.35208V7.36173V7.37139V7.38104V7.3907V7.40036V7.41001V7.41967V7.42932V7.43898V7.44863V7.45829V7.46794V7.4776V7.48726V7.49691V7.50657V7.51622V7.52588V7.53553V7.54519V7.55484V7.5645V7.57415V7.58381V7.59347V7.60312V7.61278V7.62243V7.63209V7.64174V7.6514V7.66105V7.67071V7.68036V7.69002V7.69967V7.70933V7.71898V7.72864V7.73829V7.74795V7.7576V7.76725V7.77691V7.78656V7.79622V7.80587V7.81553V7.82518V7.83484V7.84449V7.85414V7.8638V7.87345V7.88311V7.89276V7.90241V7.91207V7.92172V7.93137V7.94103V7.95068V7.96034V7.96999V7.97964V7.9893V7.99895V8.0086V8.01825V8.02791V8.03756V8.04721V8.05687V8.06652V8.07617V8.08582V8.09548V8.10513V8.11478V8.12443V8.13409V8.14374V8.15339V8.16304V8.17269V8.18235V8.192V8.20165V8.2113V8.22095V8.2306V8.24025V8.24991V8.25956V8.26921V8.27886V8.28851V8.29816V8.30781V8.31746V8.32711V8.33676V8.34641V8.35606V8.36571V8.37536V8.38501V8.39466V8.40431V8.41396V8.42361V8.43326V8.44291V8.45256V8.4622V8.47185V8.4815V8.49115V8.5008V8.51045V8.52009V8.52974V8.53939V8.54904V8.55869V8.56833V8.57798V8.58763V8.59727V8.60692V8.61657V8.62621V8.63586V8.64551V8.65515V8.6648V8.67445V8.68409V8.69374V8.70338V8.71303V8.72267V8.73232V8.74197V8.75161V8.76125V8.7709V8.78054V8.79019V8.79983V8.80948V8.81912V8.82876V8.83841V8.84805V8.85769V8.86734V8.87698V8.88662V8.89627V8.90591V8.91555V8.92519V8.93484V8.94448V8.95412V8.96376V8.9734V8.98304V8.99268V9.00233V9.01197V9.02161V9.03125V9.04089V9.05053V9.06017V9.06981V9.07945V9.08908V9.09872V9.10836V9.118V9.12764V9.13728V9.14692V9.15656V9.16619V9.17583V9.18547V9.19511V9.20474V9.21438V9.22402V9.23365V9.24329V9.25293V9.26256V9.2722V9.28183V9.29147V9.3011V9.31074V9.32037V9.33001V9.33964V9.34928V9.35891V9.36854V9.37818V9.38781V9.39744V9.40708V9.41671V9.42634V9.43598V9.44561V9.45524V9.46487V9.4745V9.48413V9.49376V9.5034V9.51303V9.52266V9.53229V9.54192V9.55155V9.56118V9.5708V9.58043V9.59006V9.59969V9.60932V9.61895V9.62858V9.6382V9.64783V9.65746V9.66708V9.67671V9.68634V9.69596V9.70559V9.71522V9.72484V9.73447V9.74409V9.75372V9.76334C6.66633 11.6328 6.66514 13.5025 6.66396 15.3725C6.66159 19.113 6.65922 22.8542 6.66633 26.5948C6.66632 26.6325 6.66439 26.6584 6.66233 26.6753C6.64565 26.6832 6.61994 26.6939 6.58157 26.7067L6.58156 26.7067L6.57737 26.7081C3.83837 27.6482 2.25204 30.0881 2.38977 33.0493L2.38977 33.0494C2.50783 35.576 4.51846 37.8571 7.09636 38.513L7.09685 38.5132C10.5472 39.3874 14.0692 36.9915 14.6146 33.4765C15.067 30.577 13.3335 27.6143 10.4959 26.7151L10.4959 26.7151L10.4898 26.7132C10.4536 26.7022 10.4297 26.6926 10.4147 26.6857C10.4109 26.6621 10.4076 26.6241 10.4075 26.5641C10.4146 25.5243 10.4122 24.4827 10.4099 23.4437C10.4087 22.939 10.4076 22.4349 10.4075 21.932H11.8181V21.9348V21.938V21.9411V21.9443V21.9474V21.9506V21.9538V21.9569V21.9601V21.9632V21.9664V21.9696V21.9727V21.9759V21.979V21.9822V21.9854V21.9885V21.9917V21.9948V21.998V22.0012V22.0043V22.0075V22.0107V22.0138V22.017V22.0201V22.0233V22.0265V22.0296V22.0328V22.0359V22.0391V22.0423V22.0454V22.0486V22.0518V22.0549V22.0581V22.0613V22.0644V22.0676V22.0707V22.0739V22.0771V22.0802V22.0834V22.0866V22.0897V22.0929V22.0961V22.0992V22.1024V22.1056V22.1087V22.1119V22.1151V22.1182V22.1214V22.1246V22.1277V22.1309V22.1341V22.1372V22.1404V22.1436V22.1467V22.1499V22.1531V22.1562V22.1594V22.1626V22.1658V22.1689V22.1721V22.1753V22.1784V22.1816V22.1848V22.1879V22.1911V22.1943V22.1974V22.2006V22.2038V22.207V22.2101V22.2133V22.2165V22.2196V22.2228V22.226V22.2292V22.2323V22.2355V22.2387V22.2418V22.245V22.2482V22.2514V22.2545V22.2577V22.2609V22.264V22.2672V22.2704V22.2736V22.2767V22.2799V22.2831V22.2863V22.2894V22.2926V22.2958V22.299V22.3021V22.3053V22.3085V22.3116V22.3148V22.318V22.3212V22.3243V22.3275V22.3307V22.3339V22.337V22.3402V22.3434V22.3466V22.3497V22.3529V22.3561V22.3593V22.3625V22.3656V22.3688V22.372V22.3752V22.3783V22.3815V22.3847V22.3879V22.391V22.3942V22.3974V22.4006V22.4037V22.4069V22.4101V22.4133V22.4165V22.4196V22.4228V22.426V22.4292V22.4323V22.4355V22.4387V22.4419V22.4451V22.4482V22.4514V22.4546V22.4578V22.461V22.4641V22.4673V22.4705V22.4737V22.4769V22.48V22.4832V22.4864V22.4896V22.4928V22.4959V22.4991V22.5023V22.5055V22.5087V22.5118V22.515V22.5182V22.5214V22.5246V22.5277V22.5309V22.5341V22.5373V22.5405V22.5436V22.5468V22.55V22.5532V22.5564V22.5595V22.5627V22.5659V22.5691V22.5723V22.5755V22.5786V22.5818V22.585V22.5882V22.5914V22.5946V22.5977V22.6009V22.6041V22.6073V22.6105V22.6136V22.6168V22.62V22.6232V22.6264V22.6296V22.6327V22.6359V22.6391V22.6423V22.6455V22.6487V22.6518V22.655V22.6582V22.6614V22.6646V22.6678V22.6709V22.6741V22.6773V22.6805V22.6837V22.6869V22.6901V22.6932V22.6964V22.6996V22.7028V22.706V22.7092V22.7123V22.7155V22.7187V22.7219V22.7251V22.7283V22.7314V22.7346V22.7378V22.741V22.7442V22.7474V22.7506V22.7537V22.7569V22.7601V22.7633V22.7665V22.7697V22.7729V22.776V22.7792V22.7824V22.7856V22.7888V22.792V22.7952V22.7983V22.8015V22.8047V22.8079V22.8111V22.8143V22.8175V22.8206V22.8238V22.827V22.8302V22.8334V22.8366V22.8398V22.8429V22.8461V22.8493V22.8525V22.8557V22.8589V22.8621V22.8653V22.8684V22.8716V22.8748V22.878V22.8812V22.8844V22.8876V22.8907V22.8939V22.8971V22.9003V22.9035V22.9067V22.9099V22.9131V22.9162V22.9194V22.9226V22.9258V22.929V22.9322V22.9354V22.9385V22.9417V22.9449V22.9481V22.9513V22.9545V22.9577V22.9609V22.964V22.9672V22.9704V22.9736V22.9768V22.98V22.9832V22.9864V22.9895V22.9927V22.9959V22.9991V23.0023V23.0055V23.0087V23.0119V23.015V23.0182V23.0214V23.0246V23.0278V23.031V23.0342V23.0374V23.0405V23.0437V23.0469V23.0501V23.0533H11.818L11.8181 23.0614C11.822 23.3012 11.8214 23.5093 11.8205 23.6953L11.8202 23.7439C11.8194 23.9086 11.8186 24.0609 11.8215 24.1976C11.8278 24.4951 11.8511 24.7772 11.9598 25.0519C12.0712 25.3333 12.253 25.5606 12.494 25.7916C12.7291 26.017 13.0512 26.2741 13.4703 26.6035C16.5689 29.0449 17.1595 33.7336 14.8546 36.9705C13.0022 39.5676 9.83665 40.8275 6.83122 40.0612L6.83072 40.061C5.18331 39.6428 3.86076 38.9055 2.87742 37.8764C1.89502 36.8482 1.22775 35.5043 0.928175 33.8338L0.92814 33.8336C0.376637 30.7652 1.43413 28.2203 3.95659 26.3229C4.39393 25.9977 4.73121 25.6381 4.954 25.1975C5.17715 24.7562 5.26646 24.2712 5.26646 23.7253L5.26645 23.7227C5.2436 19.176 5.24796 14.63 5.25231 10.0822C5.25405 8.26259 5.25579 6.44266 5.25579 4.62229C5.25579 3.9238 5.40099 3.33202 5.68391 2.8459C5.96521 2.36254 6.39912 1.95508 7.0243 1.64717Z" fill="#8F8F8F" stroke="#8F8F8F"/>
<path d="M10.9286 32.525C10.9286 33.8423 9.84739 34.9146 8.50772 34.9155C7.17684 34.9058 6.12622 33.8429 6.12622 32.493C6.12622 31.1906 7.20363 30.1132 8.50607 30.1132C9.83102 30.1132 10.9286 31.2131 10.9286 32.525Z" fill="#8F8F8F" stroke="#8F8F8F"/>
<path d="M10.4266 18.1162V16.375H11.7945V18.1162H10.4266Z" fill="#8F8F8F" stroke="#8F8F8F"/>
<path fill-rule="evenodd" clip-rule="evenodd" d="M20.4572 8.41938H18.8679C18.7719 8.41938 18.6973 8.34472 18.6973 8.24872C18.6973 8.15273 18.7719 8.07806 18.8679 8.07806H20.4572C20.5532 8.07806 20.6278 8.15273 20.6278 8.24872C20.6278 8.34472 20.5532 8.41938 20.4572 8.41938Z" fill="#8F8F8F" stroke="#8F8F8F" stroke-width="1.5" stroke-miterlimit="10"/>
<path fill-rule="evenodd" clip-rule="evenodd" d="M21.9119 4.88883H18.808C18.7547 4.88883 18.712 4.81417 18.712 4.71817C18.712 4.62218 18.7547 4.54752 18.808 4.54752H21.9119C21.9652 4.54752 22.0079 4.62218 22.0079 4.71817C22.0079 4.81417 21.9652 4.88883 21.9119 4.88883Z" fill="#8F8F8F" stroke="#8F8F8F" stroke-width="1.5" stroke-miterlimit="10"/>
<path fill-rule="evenodd" clip-rule="evenodd" d="M21.9119 11.9605H18.808C18.7547 11.9605 18.712 11.8859 18.712 11.7899C18.712 11.6939 18.7547 11.6192 18.808 11.6192H21.9119C21.9652 11.6192 22.0079 11.6939 22.0079 11.7899C22.0079 11.8859 21.9652 11.9605 21.9119 11.9605Z" fill="#8F8F8F" stroke="#8F8F8F" stroke-width="1.5" stroke-miterlimit="10"/>
<path fill-rule="evenodd" clip-rule="evenodd" d="M20.5212 15.5017H18.7933C18.7399 15.5017 18.6973 15.4271 18.6973 15.3311C18.6973 15.2351 18.7399 15.1604 18.7933 15.1604H20.5212C20.5745 15.1604 20.6172 15.2351 20.6172 15.3311C20.6172 15.4271 20.5745 15.5017 20.5212 15.5017Z" fill="#8F8F8F" stroke="#8F8F8F" stroke-width="1.5" stroke-miterlimit="10"/>
<path fill-rule="evenodd" clip-rule="evenodd" d="M21.8331 19.0429H18.8679C18.7719 19.0429 18.6973 18.9682 18.6973 18.8722C18.6973 18.7762 18.7719 18.7015 18.8679 18.7015H21.8331C21.9291 18.7015 22.0038 18.7762 22.0038 18.8722C22.0038 18.9682 21.9291 19.0429 21.8331 19.0429Z" fill="#8F8F8F" stroke="#8F8F8F" stroke-width="1.5" stroke-miterlimit="10"/>
<path fill-rule="evenodd" clip-rule="evenodd" d="M20.5212 22.584H18.7933C18.7399 22.584 18.6973 22.5093 18.6973 22.4133C18.6973 22.3173 18.7399 22.2427 18.7933 22.2427H20.5212C20.5745 22.2427 20.6172 22.3173 20.6172 22.4133C20.6172 22.5093 20.5745 22.584 20.5212 22.584Z" fill="#8F8F8F" stroke="#8F8F8F" stroke-width="1.5" stroke-miterlimit="10"/>
<path fill-rule="evenodd" clip-rule="evenodd" d="M21.9119 26.1252H18.808C18.7547 26.1252 18.712 26.0505 18.712 25.9545C18.712 25.8585 18.7547 25.7839 18.808 25.7839H21.9119C21.9652 25.7839 22.0079 25.8585 22.0079 25.9545C22.0079 26.0505 21.9652 26.1252 21.9119 26.1252Z" fill="#8F8F8F" stroke="#8F8F8F" stroke-width="1.5" stroke-miterlimit="10"/>
</svg>
