<svg width="103" height="52" viewBox="0 0 103 52" fill="none" xmlns="http://www.w3.org/2000/svg">
<path d="M51.0171 23.375L53.8972 49.295C54.0272 50.475 53.0971 51.515 51.9071 51.515H50.1272C48.9372 51.515 48.0071 50.475 48.1371 49.295L51.0171 23.375Z" fill="#00FFFF"/>
<path d="M27.0881 25.4249C33.0281 19.9749 40.8381 16.5149 49.4381 16.1449V0.524902C36.5181 0.914902 24.8181 6.1049 16.0381 14.3749L27.0881 25.4249Z" fill="white"/>
<path d="M15.608 51.5049C15.608 42.3149 19.118 33.9449 24.868 27.6549L13.828 16.6149C5.25805 25.7349 -0.00195312 38.0049 -0.00195312 51.5049H15.608Z" fill="white"/>
<path d="M85.9977 14.3749C77.2177 6.1049 65.5177 0.914902 52.5977 0.524902V16.1349C61.2077 16.5149 69.0077 19.9649 74.9477 25.4149L85.9977 14.3649V14.3749Z" fill="white"/>
<path d="M102.048 51.5049C102.048 37.9949 96.7876 25.7349 88.2176 16.6049L77.1776 27.6449C82.9276 33.9349 86.4376 42.3049 86.4376 51.4949H102.048V51.5049Z" fill="white"/>
</svg>
