<svg width="100" height="154" viewBox="0 0 100 154" fill="none" xmlns="http://www.w3.org/2000/svg">
<path d="M76.9779 83.3311C76.2066 82.7623 75.2692 82.041 73.4774 82.041C71.6857 82.041 70.7482 82.7623 69.977 83.3311C69.3599 83.8027 68.9446 84.1079 67.9953 84.1079C67.0461 84.1079 66.6307 83.8027 66.0137 83.3311C65.2424 82.7623 64.305 82.041 62.5132 82.041C60.7215 82.041 59.7841 82.7623 59.0128 83.3311C58.3957 83.8027 57.9804 84.1079 57.0312 84.1079C56.0819 84.1079 55.6666 83.8027 55.0495 83.3311C54.2782 82.7623 53.3408 82.041 51.5491 82.041C49.7573 82.041 48.8199 82.7623 48.0486 83.3311C47.4316 83.8027 47.0163 84.1079 46.067 84.1079C45.1177 84.1079 44.7024 83.8027 44.0854 83.3311C43.3141 82.7623 42.3767 82.041 40.5849 82.041C38.7931 82.041 37.8557 82.7623 37.0844 83.3311C36.4674 83.8027 36.0521 84.1079 35.1028 84.1079C34.1535 84.1079 33.7382 83.8027 33.1212 83.3311C32.3499 82.7623 31.4125 82.041 29.6207 82.041C27.829 82.041 26.8915 82.7623 26.1202 83.3311C25.5032 83.8027 25.0879 84.1079 24.1386 84.1079C23.1894 84.1079 22.774 83.8027 22.157 83.3311C21.3857 82.7623 20.4483 82.041 18.6565 82.041C16.8648 82.041 15.9274 82.7623 15.1561 83.3311C14.539 83.8027 14.1237 84.1079 13.1745 84.1079C12.2252 84.1079 11.8099 83.8027 11.1928 83.3311C10.4215 82.7623 9.48413 82.041 7.69237 82.041C5.9006 82.041 4.89199 82.7623 4.1207 83.3311C3.61047 83.7195 3.23075 83.983 2.57812 84.0663V150.979H78.5205V84.0663C77.8678 83.983 77.4881 83.7056 76.9779 83.3311Z" fill="#00FFFF"/>
<rect x="4.59375" y="145.739" width="77.4397" height="7.36279" fill="#8F8F8F"/>
<rect x="78.5078" y="0.933228" width="6.29825" height="152.168" rx="2" fill="#8F8F8F"/>
<rect x="0.914062" y="0.933472" width="6.29825" height="152.168" rx="2" fill="#8F8F8F"/>
<path d="M78.4609 116.287L7.20837 116.287" stroke="#8F8F8F" stroke-opacity="0.5" stroke-dasharray="3 3"/>
<path opacity="0.5" d="M97.5469 115.787C97.823 115.787 98.0469 116.011 98.0469 116.287C98.0469 116.563 97.823 116.787 97.5469 116.787L97.5469 115.787ZM97.5469 116.787L83.2871 116.787L83.2871 115.787L97.5469 115.787L97.5469 116.787Z" fill="#8F8F8F"/>
<path opacity="0.5" d="M97.5469 30.4332C97.823 30.4332 98.0469 30.6571 98.0469 30.9332C98.0469 31.2094 97.823 31.4332 97.5469 31.4332L97.5469 30.4332ZM97.5469 31.4332L83.2871 31.4332L83.2871 30.4332L97.5469 30.4332L97.5469 31.4332Z" fill="#8F8F8F"/>
<path d="M78.4609 30.9332L7.21769 30.9332" stroke="#8F8F8F" stroke-opacity="0.5" stroke-dasharray="3 3"/>
<path opacity="0.5" d="M93.7427 114.957C93.5503 115.29 93.0691 115.29 92.8767 114.957L88.5306 107.429C88.3381 107.096 88.5787 106.679 88.9636 106.679L97.6558 106.679C98.0407 106.679 98.2812 107.096 98.0888 107.429L93.7427 114.957Z" fill="#8F8F8F"/>
<path opacity="0.5" d="M93.3075 31.9332L97.6536 39.4609H88.9614L93.3075 31.9332Z" stroke="#8F8F8F"/>
</svg>
