<svg width="30" height="41" viewBox="0 0 30 41" fill="none" xmlns="http://www.w3.org/2000/svg">
<path d="M11.2479 12.3604L16.1194 11.3571L12.6804 17.518C12.2512 18.2352 12.5373 19.0934 13.2525 19.5246C13.9677 19.9557 14.828 19.6676 15.2591 18.9524L20.2737 10.0697C20.8458 9.0664 19.9876 7.77701 18.6982 7.92005L13.8267 8.92336L17.2658 2.76248C17.6949 2.04525 17.4088 1.187 16.6936 0.755863C15.9784 0.324722 15.1181 0.61282 14.687 1.32803L9.67244 10.2107C9.10028 11.3571 9.95853 12.6465 11.2479 12.3604Z" fill="#8F8F8F" stroke="#8F8F8F"/>
<circle cx="3.68122" cy="37.6688" r="2.88435" fill="#8F8F8F"/>
<circle cx="14.9832" cy="37.669" r="2.88435" fill="#8F8F8F"/>
<circle cx="26.2701" cy="37.669" r="2.88435" fill="#8F8F8F"/>
<rect x="2.03259" y="26.4189" width="25.8956" height="4.93988" rx="2" stroke="#8F8F8F" stroke-width="2"/>
</svg>
