<svg width="56" height="34" viewBox="0 0 56 34" fill="none" xmlns="http://www.w3.org/2000/svg">
<path d="M28.1091 15.3901C28.1091 15.3901 28.0771 15.3901 28.0558 15.3901C28.3649 15.6672 28.5674 16.0722 28.5674 16.5199C28.5674 17.3512 27.8853 18.0334 27.0539 18.0334C26.4357 18.0334 25.9135 17.671 25.679 17.1381C25.5937 17.3939 25.5298 17.671 25.5298 17.9588C25.5298 19.3763 26.6809 20.5381 28.1091 20.5381C29.5373 20.5381 30.6884 19.387 30.6884 17.9588C30.6884 16.5305 29.5373 15.3794 28.1091 15.3794V15.3901Z" fill="#00FFFF"/>
<path d="M52.8272 8.41928C52.8272 7.72892 52.2675 7.16928 51.5772 7.16928C50.8868 7.16928 50.3272 7.72892 50.3272 8.41928H52.8272ZM5.88764 8.41928C5.88764 7.72892 5.32799 7.16928 4.63764 7.16928C3.94728 7.16928 3.38764 7.72892 3.38764 8.41928H5.88764ZM51.4275 0.76358H4.78635V3.26358H51.4275V0.76358ZM4.78635 0.76358C2.47797 0.76358 0.210938 2.35355 0.210938 4.7741H2.71094C2.71094 4.14635 3.40694 3.26358 4.78635 3.26358V0.76358ZM0.210938 4.7741C0.210938 7.19697 2.49142 8.78462 4.78635 8.78462V6.28462C3.41481 6.28462 2.71094 5.39953 2.71094 4.7741H0.210938ZM4.78635 8.78462H51.4168V6.28462H4.78635V8.78462ZM51.4168 8.78462C53.7252 8.78462 55.9922 7.19465 55.9922 4.7741H53.4922C53.4922 5.40185 52.7962 6.28462 51.4168 6.28462V8.78462ZM55.9922 4.7741C55.9922 2.35123 53.7117 0.76358 51.4168 0.76358V3.26358C52.7883 3.26358 53.4922 4.14867 53.4922 4.7741H55.9922ZM51.4168 3.26358H51.4275V0.76358H51.4168V3.26358ZM33.0073 17.9585C33.0073 20.6646 30.8135 22.8584 28.1074 22.8584V25.3584C32.1942 25.3584 35.5073 22.0453 35.5073 17.9585H33.0073ZM28.1074 22.8584C25.4013 22.8584 23.2075 20.6646 23.2075 17.9585H20.7075C20.7075 22.0453 24.0206 25.3584 28.1074 25.3584V22.8584ZM23.2075 17.9585C23.2075 15.2523 25.4013 13.0586 28.1074 13.0586V10.5586C24.0206 10.5586 20.7075 13.8716 20.7075 17.9585H23.2075ZM28.1074 13.0586C30.8135 13.0586 33.0073 15.2523 33.0073 17.9585H35.5073C35.5073 13.8716 32.1942 10.5586 28.1074 10.5586V13.0586ZM50.3272 8.41928C50.3272 20.6895 40.3776 30.639 28.1074 30.639V33.139C41.7584 33.139 52.8272 22.0702 52.8272 8.41928H50.3272ZM28.1074 30.639C15.8372 30.639 5.88764 20.6895 5.88764 8.41928H3.38764C3.38764 22.0702 14.4564 33.139 28.1074 33.139V30.639Z" fill="#8F8F8F"/>
</svg>
