<svg width="26" height="21" viewBox="0 0 26 21" fill="none" xmlns="http://www.w3.org/2000/svg">
<path d="M24.1547 7.77707C23.761 7.77752 23.3877 7.60184 23.1373 7.29843C22.9808 7.10975 19.4382 2.96022 12.7484 2.96022C6.05861 2.96022 2.50464 7.12021 2.35722 7.29888C1.89595 7.85968 1.0665 7.94109 0.504507 7.48053C-0.0573393 7.02012 -0.138907 6.19222 0.322513 5.63127C0.500167 5.4151 4.75817 0.332947 12.7484 0.332947C20.7386 0.332947 24.9962 5.4151 25.1734 5.63142C25.6337 6.19281 25.551 7.02057 24.9884 7.48008C24.7531 7.6722 24.4586 7.77722 24.1547 7.77707Z" fill="#00FFFF"/>
<path d="M21.0837 11.2802C20.6918 11.2809 20.32 11.1068 20.0699 10.8056C18.162 8.81725 15.5061 7.71866 12.7484 7.77722C9.9899 7.71821 7.33318 8.81725 5.42509 10.8065C4.94346 11.35 4.11177 11.4008 3.56728 10.9202C3.04884 10.4625 2.97416 9.68205 3.39651 9.1347C5.80689 6.54313 9.2061 5.09467 12.7484 5.14994C16.2907 5.09482 19.6899 6.54313 22.1003 9.1347C22.5607 9.6961 22.4779 10.5239 21.9153 10.9834C21.6806 11.175 21.387 11.2799 21.0837 11.2803V11.2802Z" fill="#00FFFF"/>
<path d="M17.5741 14.7832C17.1664 14.7841 16.7816 14.5957 16.5326 14.2735C14.6469 12.1867 11.4236 12.0207 9.33287 13.9027C9.20281 14.0198 9.07873 14.1435 8.9614 14.2735C8.51195 14.8437 7.68445 14.9423 7.11332 14.4937C6.55117 14.0522 6.44521 13.2436 6.8746 12.6726C9.63699 9.43512 14.5058 9.04581 17.7492 11.8031C18.0623 12.0693 18.3537 12.3601 18.6204 12.6726C19.0613 13.2494 18.9504 14.0737 18.3725 14.5138C18.1431 14.6886 17.8626 14.7832 17.5741 14.7832Z" fill="#00FFFF"/>
<path d="M12.7484 20.4757C14.2021 20.4757 15.3806 19.2995 15.3806 17.8485C15.3806 16.3975 14.2021 15.2212 12.7484 15.2212C11.2947 15.2212 10.1162 16.3975 10.1162 17.8485C10.1162 19.2995 11.2947 20.4757 12.7484 20.4757Z" fill="#00FFFF"/>
</svg>
