<svg width="26" height="37" viewBox="0 0 26 37" fill="none" xmlns="http://www.w3.org/2000/svg">
<path d="M24.2699 16.4979C24.2674 16.5269 24.2661 16.5561 24.2661 16.5852V34.3207C24.2661 34.8242 23.8613 35.2592 23.3334 35.2592H2.90143C2.40388 35.2592 1.96875 34.8601 1.96875 34.3207V16.5852C1.96875 16.0817 2.37353 15.6467 2.90143 15.6467H23.3334C23.9856 15.6467 24.307 16.0749 24.2699 16.4979ZM15.3018 31.6521C15.5872 31.6521 15.8589 31.5302 16.0487 31.3171C16.2384 31.104 16.3281 30.8199 16.2951 30.5365L15.6444 24.9442C16.2327 24.3201 16.5044 23.4872 16.5044 22.7015C16.5044 20.8257 15.0398 19.358 13.1666 19.358C11.2934 19.358 9.82889 20.8257 9.82889 22.7015C9.82889 23.6148 10.1929 24.4494 10.7825 25.0496L10.0405 30.5176C10.0017 30.8037 10.0884 31.0925 10.2783 31.3099C10.4682 31.5274 10.7427 31.6521 11.0314 31.6521H15.3018Z" stroke="#8F8F8F" stroke-width="2" stroke-linejoin="round"/>
<path d="M5.92969 14.6467V8.21218C5.92969 4.24267 9.14696 1.02539 13.1165 1.02539C17.086 1.02539 20.3033 4.24267 20.3033 8.21218V14.6467" stroke="#8F8F8F" stroke-width="2" stroke-miterlimit="10"/>
</svg>
