<svg width="26" height="37" viewBox="0 0 26 37" fill="none" xmlns="http://www.w3.org/2000/svg">
<path d="M24.2739 16.4947C24.2714 16.5237 24.2701 16.5528 24.2701 16.582V34.3204C24.2701 34.824 23.8652 35.2592 23.3371 35.2592H2.90175C2.40403 35.2592 1.96875 34.86 1.96875 34.3204V16.582C1.96875 16.0783 2.37366 15.6432 2.90175 15.6432H23.3371C23.9894 15.6432 24.311 16.0715 24.2739 16.4947ZM15.3042 31.6512C15.5895 31.6512 15.8613 31.5293 16.051 31.3162C16.2408 31.1031 16.3305 30.819 16.2975 30.5356L15.6466 24.9423C16.2351 24.3181 16.5067 23.4851 16.5067 22.6993C16.5067 20.8233 15.0421 19.3554 13.1686 19.3554C11.2952 19.3554 9.83051 20.8233 9.83051 22.6993C9.83051 23.6127 10.1946 24.4475 10.7843 25.0477L10.0422 30.5167C10.0033 30.8028 10.09 31.0916 10.2799 31.309C10.4698 31.5264 10.7444 31.6512 11.0331 31.6512H15.3042Z" stroke="#00FFFF" stroke-width="2" stroke-linejoin="round"/>
<path d="M5.92969 8.98888V8.21336C5.92969 4.2432 9.14749 1.02539 13.1177 1.02539C17.0878 1.02539 20.3056 4.2432 20.3056 8.21336V14.649" stroke="#00FFFF" stroke-width="2" stroke-miterlimit="10"/>
</svg>
