<svg width="34" height="49" viewBox="0 0 34 49" fill="none" xmlns="http://www.w3.org/2000/svg">
<path d="M28.2184 37.3768C28.2184 37.3768 28.8127 21.9406 25.6984 15.3884L28.2184 37.3768Z" fill="#262626"/>
<path d="M28.2184 37.3768C28.2184 37.3768 28.8127 21.9406 25.6984 15.3884" stroke="#00FFFF" stroke-width="1.8"/>
<path d="M11.1535 37.3768C11.1535 37.3768 10.5592 21.9406 13.6735 15.3884L11.1535 37.3768Z" fill="#262626"/>
<path d="M11.1535 37.3768C11.1535 37.3768 10.5592 21.9406 13.6735 15.3884" stroke="#00FFFF" stroke-width="1.8"/>
<path d="M3.97084 31.4853H2.34729C1.84914 31.4853 1.44531 31.6472 1.44531 31.847V45.9761C1.44531 46.1758 1.84914 46.3378 2.34729 46.3378H3.97084C4.46899 46.3378 4.87281 46.1758 4.87281 45.9761V31.847C4.87281 31.6472 4.46899 31.4853 3.97084 31.4853Z" fill="#262626" stroke="#00FFFF" stroke-width="1.8"/>
<path d="M4.87451 33.7703C4.87451 33.7703 4.93966 34.3014 5.09939 34.5942C5.36349 35.0783 5.74632 35.3088 6.19768 35.4818L9.50007 36.7381C10.8617 37.2572 12.3135 37.5204 13.7729 37.5204H29.7808C31.1349 37.5204 32.2332 38.6187 32.2332 39.9728V42.2371C32.2332 43.5911 31.1349 44.6894 29.7808 44.6894H6.24281C5.75385 44.6894 5.28745 44.8474 4.89628 45.1333" stroke="#00FFFF" stroke-width="1.8"/>
<path d="M14.7331 44.6969H12.7622C12.5545 44.6969 12.3861 44.8653 12.3861 45.0731V47.1041C12.3861 47.3119 12.5545 47.4803 12.7622 47.4803H14.7331C14.9409 47.4803 15.1093 47.3119 15.1093 47.1041V45.0731C15.1093 44.8653 14.9409 44.6969 14.7331 44.6969Z" fill="#262626" stroke="#00FFFF" stroke-width="1.8"/>
<path d="M26.7816 44.6968H24.8107C24.603 44.6968 24.4346 44.8652 24.4346 45.0729V47.104C24.4346 47.3118 24.603 47.4801 24.8107 47.4801H26.7816C26.9893 47.4801 27.1577 47.3118 27.1577 47.104V45.0729C27.1577 44.8652 26.9893 44.6968 26.7816 44.6968Z" fill="#262626" stroke="#00FFFF" stroke-width="1.8"/>
<path d="M24.4175 46.3522H15.1196" stroke="#00FFFF" stroke-width="1.8"/>
<path d="M25.5052 13.6217H14.0333" stroke="#00FFFF" stroke-width="1.2" stroke-linecap="round"/>
<path d="M26.6881 15.0697H13.2252C12.9899 15.0697 12.8051 14.9753 12.8051 14.8644V14.2527C12.8051 14.1377 12.9983 14.0474 13.2336 14.0474H26.6966C26.9319 14.0474 27.1167 14.1419 27.1167 14.2527V14.8644C27.1167 14.9794 26.9235 15.0697 26.6881 15.0697Z" fill="#262626" stroke="#00FFFF" stroke-width="1.8" stroke-linecap="round"/>
<path d="M19.7274 13.2053V2.14343C19.7274 1.94006 19.8506 1.78027 20.0074 1.78027H20.5899C20.7467 1.78027 20.8699 1.94006 20.8699 2.14343V13.2053" fill="#262626"/>
<path d="M19.7274 13.2053V2.14343C19.7274 1.94006 19.8506 1.78027 20.0074 1.78027H20.5899C20.7467 1.78027 20.8699 1.94006 20.8699 2.14343V13.2053" stroke="#00FFFF" stroke-width="1.8" stroke-linecap="round"/>
<path d="M20.8846 7.24887C21.4564 7.27144 21.7873 7.34666 21.7873 7.34666L24.5105 9.77644L25.511 13.6129" fill="#262626"/>
<path d="M20.8846 7.24887C21.4564 7.27144 21.7873 7.34666 21.7873 7.34666L24.5105 9.77644L25.511 13.6129" stroke="#00FFFF" stroke-width="1.8" stroke-linecap="round"/>
<path d="M14.0618 13.6064C14.0618 13.6064 15.3481 9.33356 15.5136 8.94239C15.6791 8.55122 16.6646 7.80649 18.5602 7.43036C18.7408 7.39275 18.9138 7.36266 19.0793 7.34009" fill="#262626"/>
<path d="M14.0618 13.6064C14.0618 13.6064 15.3481 9.33356 15.5136 8.94239C15.6791 8.55122 16.6646 7.80649 18.5602 7.43036C18.7408 7.39275 18.9138 7.36266 19.0793 7.34009" stroke="#00FFFF" stroke-width="1.8" stroke-linecap="round"/>
<path d="M23.8976 5.99728L25.6026 7.53252C25.7591 7.67346 25.7714 7.90719 25.6305 8.06371L24.3419 9.49484L22.0778 7.45625L23.3664 6.02512C23.5073 5.86859 23.741 5.85634 23.8976 5.99728Z" fill="#262626" stroke="#00FFFF" stroke-width="1.8" stroke-linecap="round" stroke-linejoin="round"/>
<path d="M11.2289 44.6969H28.3276V45.043C28.3276 45.2536 28.1621 45.4191 27.9515 45.4191H11.605C11.3944 45.4191 11.2289 45.2536 11.2289 45.043V44.6969Z" fill="#262626" stroke="#00FFFF" stroke-width="1.8" stroke-linecap="round"/>
<path d="M4.87451 40.6263H31.8902" stroke="#00FFFF" stroke-width="1.8" stroke-linecap="round"/>
</svg>
