<svg width="33" height="49" viewBox="0 0 33 49" fill="none" xmlns="http://www.w3.org/2000/svg">
<path d="M28.0309 37.3768C28.0309 37.3768 28.6252 21.9406 25.5109 15.3884L28.0309 37.3768Z" fill="#262626"/>
<path d="M28.0309 37.3768C28.0309 37.3768 28.6252 21.9406 25.5109 15.3884" stroke="#8F8F8F" stroke-width="1.8"/>
<path d="M10.966 37.3768C10.966 37.3768 10.3717 21.9406 13.486 15.3884L10.966 37.3768Z" fill="#262626"/>
<path d="M10.966 37.3768C10.966 37.3768 10.3717 21.9406 13.486 15.3884" stroke="#8F8F8F" stroke-width="1.8"/>
<path d="M3.78334 31.4853H2.15979C1.66164 31.4853 1.25781 31.6472 1.25781 31.847V45.9761C1.25781 46.1758 1.66164 46.3378 2.15979 46.3378H3.78334C4.28149 46.3378 4.68531 46.1758 4.68531 45.9761V31.847C4.68531 31.6472 4.28149 31.4853 3.78334 31.4853Z" fill="#262626" stroke="#8F8F8F" stroke-width="1.8"/>
<path d="M4.68701 33.7703C4.68701 33.7703 4.75216 34.3014 4.91189 34.5942C5.17599 35.0783 5.55882 35.3088 6.01018 35.4818L9.31257 36.7381C10.6742 37.2572 12.126 37.5204 13.5854 37.5204H29.5933C30.9474 37.5204 32.0457 38.6187 32.0457 39.9728V42.2371C32.0457 43.5911 30.9474 44.6894 29.5933 44.6894H6.05531C5.56635 44.6894 5.09995 44.8474 4.70878 45.1333" stroke="#8F8F8F" stroke-width="1.8"/>
<path d="M14.5456 44.6969H12.5747C12.367 44.6969 12.1986 44.8653 12.1986 45.0731V47.1041C12.1986 47.3119 12.367 47.4803 12.5747 47.4803H14.5456C14.7534 47.4803 14.9218 47.3119 14.9218 47.1041V45.0731C14.9218 44.8653 14.7534 44.6969 14.5456 44.6969Z" fill="#262626" stroke="#8F8F8F" stroke-width="1.8"/>
<path d="M26.5941 44.6968H24.6232C24.4155 44.6968 24.2471 44.8652 24.2471 45.0729V47.104C24.2471 47.3118 24.4155 47.4801 24.6232 47.4801H26.5941C26.8018 47.4801 26.9702 47.3118 26.9702 47.104V45.0729C26.9702 44.8652 26.8018 44.6968 26.5941 44.6968Z" fill="#262626" stroke="#8F8F8F" stroke-width="1.8"/>
<path d="M24.23 46.3522H14.9321" stroke="#8F8F8F" stroke-width="1.8"/>
<path d="M25.3177 13.6217H13.8458" stroke="#8F8F8F" stroke-width="1.2" stroke-linecap="round"/>
<path d="M26.5006 15.0697H13.0377C12.8024 15.0697 12.6176 14.9753 12.6176 14.8644V14.2527C12.6176 14.1377 12.8108 14.0474 13.0461 14.0474H26.5091C26.7444 14.0474 26.9292 14.1419 26.9292 14.2527V14.8644C26.9292 14.9794 26.736 15.0697 26.5006 15.0697Z" fill="#262626" stroke="#8F8F8F" stroke-width="1.8" stroke-linecap="round"/>
<path d="M19.5399 13.2053V2.14343C19.5399 1.94006 19.6631 1.78027 19.8199 1.78027H20.4024C20.5592 1.78027 20.6824 1.94006 20.6824 2.14343V13.2053" fill="#262626"/>
<path d="M19.5399 13.2053V2.14343C19.5399 1.94006 19.6631 1.78027 19.8199 1.78027H20.4024C20.5592 1.78027 20.6824 1.94006 20.6824 2.14343V13.2053" stroke="#8F8F8F" stroke-width="1.8" stroke-linecap="round"/>
<path d="M20.6971 7.24887C21.2689 7.27144 21.5998 7.34666 21.5998 7.34666L24.323 9.77644L25.3235 13.6129" fill="#262626"/>
<path d="M20.6971 7.24887C21.2689 7.27144 21.5998 7.34666 21.5998 7.34666L24.323 9.77644L25.3235 13.6129" stroke="#8F8F8F" stroke-width="1.8" stroke-linecap="round"/>
<path d="M13.8743 13.6064C13.8743 13.6064 15.1606 9.33356 15.3261 8.94239C15.4916 8.55122 16.4771 7.80649 18.3727 7.43036C18.5533 7.39275 18.7263 7.36266 18.8918 7.34009" fill="#262626"/>
<path d="M13.8743 13.6064C13.8743 13.6064 15.1606 9.33356 15.3261 8.94239C15.4916 8.55122 16.4771 7.80649 18.3727 7.43036C18.5533 7.39275 18.7263 7.36266 18.8918 7.34009" stroke="#8F8F8F" stroke-width="1.8" stroke-linecap="round"/>
<path d="M23.7101 5.99728L25.4151 7.53252C25.5716 7.67346 25.5839 7.90719 25.443 8.06371L24.1544 9.49484L21.8903 7.45625L23.1789 6.02512C23.3198 5.86859 23.5535 5.85634 23.7101 5.99728Z" fill="#262626" stroke="#8F8F8F" stroke-width="1.8" stroke-linecap="round" stroke-linejoin="round"/>
<path d="M11.0414 44.6969H28.1401V45.043C28.1401 45.2536 27.9746 45.4191 27.764 45.4191H11.4175C11.2069 45.4191 11.0414 45.2536 11.0414 45.043V44.6969Z" fill="#262626" stroke="#8F8F8F" stroke-width="1.8" stroke-linecap="round"/>
<path d="M4.68701 40.6263H31.7027" stroke="#8F8F8F" stroke-width="1.8" stroke-linecap="round"/>
</svg>
