<svg width="33" height="41" viewBox="0 0 33 41" fill="none" xmlns="http://www.w3.org/2000/svg">
<path d="M3.58032 1.38348L7.01082 5.67002" stroke="#8F8F8F" stroke-width="1.8" stroke-miterlimit="22.93" stroke-linecap="round"/>
<path d="M1.67188 6.46896L4.84239 8.39664" stroke="#8F8F8F" stroke-width="1.8" stroke-miterlimit="22.93" stroke-linecap="round"/>
<path d="M16.7888 35.2248H29.008C30.4157 35.2248 31.5634 34.0771 31.5634 32.6694C31.5634 31.8134 31.1386 31.0144 30.422 30.5388C28.989 29.5813 28.1329 27.9897 28.1329 26.265V18.7382C28.1329 12.4796 23.0411 7.38773 16.7825 7.38773H16.643C10.3844 7.38773 5.29256 12.4796 5.29256 18.7382V26.265C5.29256 27.9834 4.43652 29.5813 3.00345 30.5388C2.29325 31.0144 1.86206 31.807 1.86206 32.6694C1.86206 34.0771 3.00979 35.2248 4.41749 35.2248H16.7762H16.7888Z" stroke="#8F8F8F" stroke-width="1.8" stroke-miterlimit="22.93"/>
<path d="M14.8641 7.25554V4.5289C14.8641 3.54604 15.6631 2.74707 16.646 2.74707C17.6288 2.74707 18.4278 3.54604 18.4278 4.5289V7.25554" stroke="#8F8F8F" stroke-width="1.8" stroke-miterlimit="22.93"/>
<path d="M20.8055 35.2251C20.8055 37.5269 18.9412 39.3848 16.6458 39.3848C14.3503 39.3848 12.4861 37.5205 12.4861 35.2251" stroke="#8F8F8F" stroke-width="1.8" stroke-miterlimit="22.93"/>
<path d="M16.6453 28.7837C16.1556 28.7837 15.7566 28.3876 15.7566 27.8887C15.7566 27.3927 16.1527 27 16.6453 27C17.1364 27 17.534 27.3976 17.534 27.8887C17.534 28.3828 17.1334 28.7837 16.6453 28.7837Z" fill="#8F8F8F" stroke="#8F8F8F"/>
<path d="M16.6417 14.338V24.7056" stroke="#8F8F8F" stroke-width="1.8" stroke-miterlimit="22.93" stroke-linecap="round"/>
</svg>
